<svg xmlns="http://www.w3.org/2000/svg" xmlns:xlink="http://www.w3.org/1999/xlink" width="500" zoomAndPan="magnify" viewBox="0 0 375 374.999991" height="500" preserveAspectRatio="xMidYMid meet" version="1.0"><defs><clipPath id="434683325c"><path d="M 37.5 10.359375 L 337.5 10.359375 L 337.5 364.359375 L 37.5 364.359375 Z M 37.5 10.359375 " clip-rule="nonzero"/></clipPath><clipPath id="0990654250"><path d="M 173 10.359375 L 203 10.359375 L 203 164 L 173 164 Z M 173 10.359375 " clip-rule="nonzero"/></clipPath><clipPath id="efbd5cfc88"><path d="M 173 209 L 203 209 L 203 364.359375 L 173 364.359375 Z M 173 209 " clip-rule="nonzero"/></clipPath><clipPath id="2ad57aef75"><path d="M 310 79 L 337.5 79 L 337.5 296 L 310 296 Z M 310 79 " clip-rule="nonzero"/></clipPath><clipPath id="4734f0f0d3"><path d="M 37.5 79 L 65 79 L 65 296 L 37.5 296 Z M 37.5 79 " clip-rule="nonzero"/></clipPath><clipPath id="91d3885de2"><path d="M 172.875 10.359375 L 202.125 10.359375 L 202.125 165.609375 L 172.875 165.609375 Z M 172.875 10.359375 " clip-rule="nonzero"/></clipPath><clipPath id="7d2ea37aa9"><path d="M 172.875 209.25 L 202.125 209.25 L 202.125 364.726562 L 172.875 364.726562 Z M 172.875 209.25 " clip-rule="nonzero"/></clipPath></defs><g clip-path="url(#434683325c)"><path fill="#0d0f3d" d="M 37.558594 79.042969 L 64.671875 95.3125 L 64.671875 277.871094 L 37.558594 295.945312 Z M 106.246094 187.496094 L 106.246094 330.285156 L 133.355469 312.210938 L 133.355469 62.777344 L 106.246094 44.703125 Z M 241.808594 187.496094 L 241.808594 312.210938 L 270.726562 330.285156 L 270.726562 44.703125 L 241.808594 62.777344 Z M 310.492188 187.496094 L 310.492188 277.871094 L 337.605469 295.945312 L 337.605469 79.042969 L 310.492188 95.3125 Z M 173.121094 209.183594 L 173.121094 364.628906 L 202.042969 364.628906 L 202.042969 209.183594 Z M 173.121094 163.996094 L 173.121094 10.359375 L 202.042969 10.359375 L 202.042969 163.996094 Z M 173.121094 163.996094 " fill-opacity="1" fill-rule="evenodd"/></g><g clip-path="url(#0990654250)"><path fill="#0d0f3d" d="M 173.121094 10.359375 L 202.042969 10.359375 L 202.042969 163.996094 L 173.121094 163.996094 Z M 173.121094 10.359375 " fill-opacity="1" fill-rule="evenodd"/></g><g clip-path="url(#efbd5cfc88)"><path fill="#0d0f3d" d="M 173.121094 209.183594 L 202.042969 209.183594 L 202.042969 364.628906 L 173.121094 364.628906 Z M 173.121094 209.183594 " fill-opacity="1" fill-rule="evenodd"/></g><g clip-path="url(#2ad57aef75)"><path fill="#0d0f3d" d="M 310.492188 95.3125 L 310.492188 277.871094 L 337.605469 295.945312 L 337.605469 79.042969 Z M 310.492188 95.3125 " fill-opacity="1" fill-rule="evenodd"/></g><g clip-path="url(#4734f0f0d3)"><path fill="#0d0f3d" d="M 64.671875 277.871094 L 64.671875 95.3125 L 37.558594 79.042969 L 37.558594 295.945312 Z M 64.671875 277.871094 " fill-opacity="1" fill-rule="evenodd"/></g><g clip-path="url(#91d3885de2)"><path fill="#00dec6" d="M 172.875 10.359375 L 202.125 10.359375 L 202.125 165.636719 L 172.875 165.636719 Z M 172.875 10.359375 " fill-opacity="1" fill-rule="nonzero"/></g><g clip-path="url(#7d2ea37aa9)"><path fill="#00dec6" d="M 172.875 209.25 L 202.125 209.25 L 202.125 364.753906 L 172.875 364.753906 Z M 172.875 209.25 " fill-opacity="1" fill-rule="nonzero"/></g></svg>